<svg xmlns="http://www.w3.org/2000/svg" xmlns:xlink="http://www.w3.org/1999/xlink" width="500" zoomAndPan="magnify" viewBox="0 0 375 374.999991" height="500" preserveAspectRatio="xMidYMid meet" version="1.0"><defs><g/></defs><path stroke-linecap="butt" transform="matrix(6.138127, -0.0477767, 0.0477767, 6.138127, 139.576899, -35.73169)" fill="none" stroke-linejoin="miter" d="M 4.791257 18.929401 L 16.639588 18.929347 C 22.038731 18.92937 25.957377 19.697449 28.396794 21.234229 C 30.83558 22.770368 32.054977 25.214056 32.054994 28.564019 C 32.055109 30.838482 31.521288 32.704681 30.453531 34.162615 C 29.386405 35.621191 27.966793 36.497907 26.195966 36.792773 L 26.196486 37.053061 C 28.609307 37.591773 30.34964 38.59809 31.417473 40.073919 C 32.484669 41.549744 33.018605 43.511439 33.018646 45.959 C 33.018985 49.431153 31.764579 52.139416 29.256064 54.083794 C 26.747554 56.027536 23.340382 57.00015 19.035198 56.999732 L 4.791487 57.000233 Z M 12.86362 34.006611 L 17.551276 34.006823 C 19.738554 34.006666 21.322619 33.668344 22.303477 32.991221 C 23.284335 32.314099 23.774802 31.19405 23.774871 29.63171 C 23.774764 28.173737 23.2407 27.127808 22.173314 26.493927 C 21.105288 25.860678 19.417503 25.543346 17.108035 25.543825 L 12.863942 25.543883 Z M 12.864034 40.412528 L 12.863813 50.333865 L 18.12359 50.333439 C 20.345867 50.333554 21.98661 49.908488 23.045188 49.057599 C 24.104397 48.207352 24.633829 46.904962 24.634112 45.151706 C 24.633886 41.992022 22.376808 40.41275 17.863522 40.412622 Z M 12.864034 40.412528 " stroke="#000000" stroke-width="3.999998" stroke-opacity="1" stroke-miterlimit="4"/><g fill="#ff00f5" fill-opacity="1"><g transform="translate(142.300172, 314.141551)"><g><path d="M 27.59375 -233.921875 L 100.328125 -234.484375 C 133.460938 -234.742188 157.550781 -230.21875 172.59375 -220.90625 C 187.644531 -211.59375 195.25 -196.648438 195.40625 -176.078125 C 195.507812 -162.117188 192.320312 -150.632812 185.84375 -141.625 C 179.363281 -132.625 170.691406 -127.175781 159.828125 -125.28125 L 159.84375 -123.6875 C 174.675781 -120.5 185.40625 -114.398438 192.03125 -105.390625 C 198.664062 -96.390625 202.039062 -84.378906 202.15625 -69.359375 C 202.320312 -48.046875 194.75 -31.359375 179.4375 -19.296875 C 164.132812 -7.242188 143.269531 -1.113281 116.84375 -0.90625 L 29.40625 -0.234375 Z M 77.875 -141.75 L 106.640625 -141.984375 C 120.066406 -142.085938 129.769531 -144.238281 135.75 -148.4375 C 141.738281 -152.644531 144.695312 -159.546875 144.625 -169.140625 C 144.5625 -178.085938 141.238281 -184.476562 134.65625 -188.3125 C 128.070312 -192.15625 117.691406 -194.019531 103.515625 -193.90625 L 77.46875 -193.703125 Z M 78.171875 -102.421875 L 78.65625 -41.53125 L 110.9375 -41.78125 C 124.582031 -41.894531 134.632812 -44.582031 141.09375 -49.84375 C 147.550781 -55.113281 150.738281 -63.132812 150.65625 -73.90625 C 150.5 -93.289062 136.566406 -102.878906 108.859375 -102.671875 Z M 78.171875 -102.421875 "/></g></g></g><path stroke-linecap="butt" transform="matrix(6.138313, 0.000000000000000006, -0.000000000000000006, 6.138313, 12.222873, -43.45806)" fill="none" stroke-linejoin="miter" d="M 12.863587 35.82918 L 15.467621 35.82918 C 18.019472 35.82918 19.903133 35.404084 21.118604 34.553255 C 22.333438 33.703062 22.941173 32.366044 22.941173 30.543475 C 22.941173 28.738088 22.32071 27.453253 21.079149 26.689607 C 19.838223 25.925324 17.915744 25.543501 15.31171 25.543501 L 12.863587 25.543501 Z M 12.863587 42.391448 L 12.863587 57.000002 L 4.791209 57.000002 L 4.791209 18.929687 L 15.884445 18.929687 C 21.057512 18.929687 24.885289 19.871518 27.367776 21.754542 C 29.850263 23.638203 31.091825 26.498695 31.091825 30.334745 C 31.091825 32.574138 30.475817 34.566618 29.243164 36.310914 C 28.010512 38.055846 26.26558 39.422773 24.009005 40.412331 C 29.737625 48.970897 33.469947 54.500333 35.205969 57.000002 L 26.248398 57.000002 L 17.16037 42.391448 Z M 12.863587 42.391448 " stroke="#000000" stroke-width="3.999998" stroke-opacity="1" stroke-miterlimit="4"/><g fill="#00e7e0" fill-opacity="1"><g transform="translate(12.222873, 306.42577)"><g><path d="M 78.96875 -129.953125 L 94.953125 -129.953125 C 110.609375 -129.953125 122.164062 -132.5625 129.625 -137.78125 C 137.09375 -143.007812 140.828125 -151.21875 140.828125 -162.40625 C 140.828125 -173.488281 137.015625 -181.375 129.390625 -186.0625 C 121.773438 -190.75 109.972656 -193.09375 93.984375 -193.09375 L 78.96875 -193.09375 Z M 78.96875 -89.671875 L 78.96875 0 L 29.40625 0 L 29.40625 -233.6875 L 97.5 -233.6875 C 129.257812 -233.6875 152.757812 -227.90625 168 -216.34375 C 183.238281 -204.78125 190.859375 -187.226562 190.859375 -163.6875 C 190.859375 -149.9375 187.070312 -137.707031 179.5 -127 C 171.9375 -116.289062 161.226562 -107.894531 147.375 -101.8125 C 182.539062 -49.28125 205.453125 -15.34375 216.109375 0 L 161.125 0 L 105.34375 -89.671875 Z M 78.96875 -89.671875 "/></g></g></g></svg>